FacadeStencil-Regular.ufo
<glyph name="ampersand" format="2">
  <advance width="800"/>
  <unicode hex="0026"/>
  <outline>
    <contour>
      <point x="622" y="0" type="line"/>
      <point x="750" y="0" type="line"/>
      <point x="665" y="116" type="line"/>
      <point x="709" y="160"/>
      <point x="742" y="213"/>
      <point x="764" y="271" type="curve"/>
      <point x="684" y="381" type="line"/>
      <point x="678" y="315"/>
      <point x="651" y="252"/>
      <point x="609" y="202" type="curve"/>
      <point x="318" y="608" type="line" smooth="yes"/>
      <point x="291" y="645"/>
      <point x="270" y="677"/>
      <point x="270" y="716" type="curve" smooth="yes"/>
      <point x="270" y="761"/>
      <point x="299" y="800"/>
      <point x="339" y="812" type="curve"/>
      <point x="339" y="910" type="line"/>
      <point x="238" y="896"/>
      <point x="162" y="812"/>
      <point x="162" y="705" type="curve" smooth="yes"/>
      <point x="162" y="635"/>
      <point x="194" y="587"/>
      <point x="228" y="543" type="curve" smooth="yes"/>
    </contour>
    <contour>
      <point x="381" y="-12" type="curve" smooth="yes"/>
      <point x="435" y="-12"/>
      <point x="490" y="-1"/>
      <point x="537" y="27" type="curve"/>
      <point x="478" y="109" type="line"/>
      <point x="450" y="95"/>
      <point x="419" y="88"/>
      <point x="387" y="88" type="curve" smooth="yes"/>
      <point x="265" y="88"/>
      <point x="196" y="173"/>
      <point x="196" y="272" type="curve" smooth="yes"/>
      <point x="196" y="338"/>
      <point x="227" y="382"/>
      <point x="260" y="411" type="curve"/>
      <point x="205" y="490" type="line"/>
      <point x="147" y="449"/>
      <point x="86" y="381"/>
      <point x="84" y="271" type="curve" smooth="yes"/>
      <point x="80" y="106"/>
      <point x="209" y="-12"/>
    </contour>
    <contour>
      <point x="449" y="515" type="line"/>
      <point x="496" y="541"/>
      <point x="582" y="595"/>
      <point x="582" y="706" type="curve" smooth="yes"/>
      <point x="582" y="812"/>
      <point x="504" y="896"/>
      <point x="403" y="910" type="curve"/>
      <point x="403" y="812" type="line"/>
      <point x="445" y="800"/>
      <point x="474" y="760"/>
      <point x="474" y="711" type="curve" smooth="yes"/>
      <point x="474" y="643"/>
      <point x="421" y="608"/>
      <point x="392" y="593" type="curve"/>
    </contour>
  </outline>
</glyph>
<glyph name="two" format="2">
  <advance width="750"/>
  <unicode hex="0032"/>
  <outline>
    <contour>
      <point x="119" y="0" type="line"/>
      <point x="239" y="0" type="line"/>
      <point x="569" y="479" type="line"/>
      <point x="615" y="546"/>
      <point x="632" y="598"/>
      <point x="632" y="655" type="curve" smooth="yes"/>
      <point x="632" y="790"/>
      <point x="529" y="897"/>
      <point x="398" y="911" type="curve"/>
      <point x="398" y="807" type="line"/>
      <point x="470" y="794"/>
      <point x="524" y="731"/>
      <point x="524" y="655" type="curve" smooth="yes"/>
      <point x="524" y="623"/>
      <point x="513" y="587"/>
      <point x="480" y="537" type="curve" smooth="yes"/>
    </contour>
    <contour>
      <point x="311" y="0" type="line"/>
      <point x="649" y="0" type="line"/>
      <point x="649" y="102" type="line"/>
      <point x="381" y="102" type="line"/>
    </contour>
    <contour>
      <point x="133" y="534" type="curve"/>
      <point x="270" y="534" type="line"/>
      <point x="229" y="567"/>
      <point x="209" y="609"/>
      <point x="209" y="655" type="curve" smooth="yes"/>
      <point x="209" y="731"/>
      <point x="263" y="794"/>
      <point x="334" y="807" type="curve"/>
      <point x="334" y="910" type="line"/>
      <point x="204" y="896"/>
      <point x="101" y="790"/>
      <point x="101" y="655" type="curve" smooth="yes"/>
      <point x="101" y="613"/>
      <point x="112" y="574"/>
    </contour>
  </outline>
</glyph>
<glyph name="four" format="2">
  <advance width="750"/>
  <unicode hex="0034"/>
  <outline>
    <contour>
      <point x="24" y="242" type="line"/>
      <point x="140" y="242" type="line"/>
      <point x="481" y="900" type="line"/>
      <point x="361" y="900" type="line"/>
    </contour>
    <contour>
      <point x="456" y="0" type="line"/>
      <point x="564" y="0" type="line"/>
      <point x="564" y="188" type="line"/>
      <point x="456" y="188" type="line"/>
    </contour>
    <contour>
      <point x="206" y="242" type="line"/>
      <point x="696" y="242" type="line"/>
      <point x="696" y="338" type="line"/>
      <point x="561" y="338" type="line"/>
      <point x="561" y="594" type="line"/>
      <point x="459" y="540" type="line"/>
      <point x="459" y="338" type="line"/>
      <point x="255" y="338" type="line"/>
    </contour>
  </outline>
</glyph>
<glyph name="five" format="2">
  <advance width="750"/>
  <unicode hex="0035"/>
  <outline>
    <contour>
      <point x="374" y="-11" type="line"/>
      <point x="529" y="4"/>
      <point x="654" y="131"/>
      <point x="654" y="293" type="curve" smooth="yes"/>
      <point x="654" y="464"/>
      <point x="517" y="592"/>
      <point x="355" y="592" type="curve" smooth="yes"/>
      <point x="328" y="592"/>
      <point x="299" y="588"/>
      <point x="272" y="576" type="curve"/>
      <point x="272" y="900" type="line"/>
      <point x="174" y="900" type="line"/>
      <point x="174" y="413" type="line"/>
      <point x="211" y="463"/>
      <point x="272" y="496"/>
      <point x="339" y="496" type="curve" smooth="yes"/>
      <point x="454" y="496"/>
      <point x="546" y="404"/>
      <point x="546" y="293" type="curve" smooth="yes"/>
      <point x="546" y="191"/>
      <point x="471" y="107"/>
      <point x="374" y="92" type="curve"/>
    </contour>
    <contour>
      <point x="310" y="-11" type="curve"/>
      <point x="310" y="92" type="line"/>
      <point x="222" y="105"/>
      <point x="151" y="176"/>
      <point x="138" y="269" type="curve"/>
      <point x="72" y="138" type="line"/>
      <point x="122" y="53"/>
      <point x="210" y="-2"/>
    </contour>
    <contour>
      <point x="332" y="798" type="line"/>
      <point x="580" y="798" type="line"/>
      <point x="580" y="900" type="line"/>
      <point x="332" y="900" type="line"/>
    </contour>
  </outline>
</glyph>
<glyph name="question" format="2">
  <advance width="480"/>
  <unicode hex="003F"/>
  <outline>
    <contour>
      <point x="192" y="300" type="curve"/>
      <point x="288" y="300" type="line"/>
      <point x="300" y="475"/>
      <point x="450" y="552"/>
      <point x="450" y="702" type="curve" smooth="yes"/>
      <point x="450" y="779"/>
      <point x="411" y="849"/>
      <point x="342" y="885" type="curve"/>
      <point x="342" y="690" type="line" smooth="yes"/>
      <point x="342" y="565"/>
      <point x="192" y="495"/>
    </contour>
    <contour>
      <point x="240" y="-12" type="curve" smooth="yes"/>
      <point x="283" y="-12"/>
      <point x="315" y="21"/>
      <point x="315" y="63" type="curve" smooth="yes"/>
      <point x="315" y="105"/>
      <point x="283" y="138"/>
      <point x="240" y="138" type="curve" smooth="yes"/>
      <point x="198" y="138"/>
      <point x="165" y="105"/>
      <point x="165" y="63" type="curve" smooth="yes"/>
      <point x="165" y="21"/>
      <point x="198" y="-12"/>
    </contour>
    <contour>
      <point x="90" y="741" type="line"/>
      <point x="121" y="784"/>
      <point x="168" y="812"/>
      <point x="220" y="812" type="curve" smooth="yes"/>
      <point x="243" y="812"/>
      <point x="264" y="807"/>
      <point x="282" y="798" type="curve"/>
      <point x="282" y="907" type="line"/>
      <point x="264" y="910"/>
      <point x="246" y="912"/>
      <point x="227" y="912" type="curve" smooth="yes"/>
      <point x="173" y="912"/>
      <point x="125" y="897"/>
      <point x="90" y="871" type="curve"/>
    </contour>
  </outline>
</glyph>
<glyph name="at" format="2">
  <advance width="1260"/>
  <unicode hex="0040"/>
  <outline>
    <contour>
      <point x="619" y="-191" type="curve"/>
      <point x="619" y="-101" type="line"/>
      <point x="367" y="-88"/>
      <point x="174" y="108"/>
      <point x="174" y="357" type="curve" smooth="yes"/>
      <point x="174" y="605"/>
      <point x="364" y="806"/>
      <point x="619" y="821" type="curve"/>
      <point x="619" y="911" type="line"/>
      <point x="315" y="896"/>
      <point x="78" y="654"/>
      <point x="78" y="354" type="curve" smooth="yes"/>
      <point x="78" y="60"/>
      <point x="316" y="-177"/>
    </contour>
    <contour>
      <point x="683" y="-191" type="line"/>
      <point x="793" y="-186"/>
      <point x="898" y="-149"/>
      <point x="984" y="-86" type="curve"/>
      <point x="958" y="14" type="line"/>
      <point x="881" y="-55"/>
      <point x="787" y="-95"/>
      <point x="683" y="-101" type="curve"/>
    </contour>
    <contour>
      <point x="609" y="82" type="curve" smooth="yes"/>
      <point x="656" y="82"/>
      <point x="700" y="94"/>
      <point x="738" y="115" type="curve"/>
      <point x="738" y="215" type="line"/>
      <point x="706" y="188"/>
      <point x="666" y="172"/>
      <point x="621" y="172" type="curve" smooth="yes"/>
      <point x="519" y="172"/>
      <point x="438" y="256"/>
      <point x="438" y="360" type="curve" smooth="yes"/>
      <point x="438" y="464"/>
      <point x="519" y="548"/>
      <point x="621" y="548" type="curve" smooth="yes"/>
      <point x="666" y="548"/>
      <point x="706" y="532"/>
      <point x="738" y="505" type="curve"/>
      <point x="738" y="606" type="line"/>
      <point x="700" y="626"/>
      <point x="656" y="638"/>
      <point x="609" y="638" type="curve" smooth="yes"/>
      <point x="460" y="638"/>
      <point x="340" y="513"/>
      <point x="340" y="360" type="curve" smooth="yes"/>
      <point x="340" y="207"/>
      <point x="460" y="82"/>
    </contour>
    <contour>
      <point x="966" y="82" type="curve" smooth="yes"/>
      <point x="1072" y="82"/>
      <point x="1194" y="187"/>
      <point x="1194" y="401" type="curve" smooth="yes"/>
      <point x="1194" y="681"/>
      <point x="970" y="897"/>
      <point x="683" y="911" type="curve"/>
      <point x="683" y="821" type="line"/>
      <point x="920" y="808"/>
      <point x="1098" y="632"/>
      <point x="1098" y="395" type="curve" smooth="yes"/>
      <point x="1098" y="244"/>
      <point x="1041" y="160"/>
      <point x="971" y="160" type="curve" smooth="yes"/>
      <point x="928" y="160"/>
      <point x="889" y="189"/>
      <point x="889" y="248" type="curve" smooth="yes"/>
      <point x="889" y="630" type="line"/>
      <point x="798" y="630" type="line"/>
      <point x="798" y="248" type="line" smooth="yes"/>
      <point x="798" y="133"/>
      <point x="886" y="82"/>
    </contour>
  </outline>
</glyph>
<glyph name="O" format="2">
  <advance width="1060"/>
  <unicode hex="004F"/>
  <anchor x="530" y="0" name="bottom"/>
  <anchor x="530" y="450" name="center"/>
  <anchor x="530" y="0" name="ogonek"/>
  <anchor x="530" y="900" name="top"/>
  <anchor x="530" y="510" name="top-vertical"/>
  <anchor x="60" y="900" name="topleft"/>
  <anchor x="1000" y="900" name="topright"/>
  <outline>
    <contour>
      <point x="564" y="-17" type="line"/>
      <point x="806" y="-2"/>
      <point x="1000" y="201"/>
      <point x="1000" y="450" type="curve" smooth="yes"/>
      <point x="1000" y="699"/>
      <point x="806" y="902"/>
      <point x="564" y="917" type="curve"/>
      <point x="564" y="809" type="line"/>
      <point x="743" y="794"/>
      <point x="882" y="639"/>
      <point x="882" y="450" type="curve" smooth="yes"/>
      <point x="882" y="261"/>
      <point x="743" y="106"/>
      <point x="564" y="91" type="curve"/>
    </contour>
    <contour>
      <point x="496" y="-17" type="curve"/>
      <point x="496" y="91" type="line"/>
      <point x="317" y="106"/>
      <point x="178" y="261"/>
      <point x="178" y="450" type="curve" smooth="yes"/>
      <point x="178" y="639"/>
      <point x="317" y="794"/>
      <point x="496" y="809" type="curve"/>
      <point x="496" y="917" type="line"/>
      <point x="254" y="902"/>
      <point x="60" y="699"/>
      <point x="60" y="450" type="curve" smooth="yes"/>
      <point x="60" y="201"/>
      <point x="254" y="-2"/>
    </contour>
  </outline>
</glyph>
<glyph name="R" format="2">
  <advance width="780"/>
  <unicode hex="0052"/>
  <anchor x="439" y="0" name="bottom"/>
  <anchor x="325" y="900" name="top"/>
  <outline>
    <contour>
      <point x="641" y="0" type="line"/>
      <point x="774" y="0" type="line"/>
      <point x="419" y="510" type="line"/>
      <point x="303" y="510" type="line"/>
      <point x="303" y="414" type="line"/>
      <point x="355" y="414" type="line" smooth="yes"/>
      <point x="378" y="414"/>
      <point x="399" y="416"/>
      <point x="419" y="420" type="curve"/>
      <point x="309" y="480" type="line"/>
    </contour>
    <contour>
      <point x="129" y="0" type="line"/>
      <point x="243" y="0" type="line"/>
      <point x="243" y="900" type="line"/>
      <point x="129" y="900" type="line"/>
    </contour>
    <contour>
      <point x="521" y="459" type="line"/>
      <point x="589" y="503"/>
      <point x="629" y="574"/>
      <point x="629" y="655" type="curve" smooth="yes"/>
      <point x="629" y="787"/>
      <point x="524" y="900"/>
      <point x="355" y="900" type="curve" smooth="yes"/>
      <point x="303" y="900" type="line"/>
      <point x="303" y="798" type="line"/>
      <point x="355" y="798" type="line" smooth="yes"/>
      <point x="455" y="798"/>
      <point x="521" y="739"/>
      <point x="521" y="655" type="curve" smooth="yes"/>
      <point x="521" y="613"/>
      <point x="503" y="570"/>
      <point x="464" y="541" type="curve"/>
    </contour>
  </outline>
</glyph>
<glyph name="U" format="2">
  <advance width="800"/>
  <unicode hex="0055"/>
  <anchor x="400" y="0" name="bottom"/>
  <anchor x="430" y="0" name="ogonek"/>
  <anchor x="400" y="900" name="top"/>
  <anchor x="400" y="720" name="top-vertical"/>
  <anchor x="635" y="900" name="topright"/>
  <outline>
    <contour>
      <point x="367" y="-11" type="curve"/>
      <point x="367" y="92" type="line"/>
      <point x="281" y="107"/>
      <point x="222" y="180"/>
      <point x="222" y="287" type="curve" smooth="yes"/>
      <point x="222" y="900" type="line"/>
      <point x="108" y="900" type="line"/>
      <point x="108" y="283" type="line" smooth="yes"/>
      <point x="108" y="119"/>
      <point x="214" y="2"/>
    </contour>
    <contour>
      <point x="435" y="-11" type="line"/>
      <point x="587" y="3"/>
      <point x="692" y="121"/>
      <point x="692" y="287" type="curve" smooth="yes"/>
      <point x="692" y="900" type="line"/>
      <point x="582" y="900" type="line"/>
      <point x="582" y="283" type="line" smooth="yes"/>
      <point x="582" y="179"/>
      <point x="521" y="105"/>
      <point x="435" y="92" type="curve"/>
    </contour>
  </outline>
</glyph>
<glyph name="e" format="2">
  <advance width="710"/>
  <unicode hex="0065"/>
  <anchor x="358" y="0" name="bottom"/>
  <anchor x="498" y="0" name="ogonek"/>
  <anchor x="358" y="600" name="top"/>
  <outline>
    <contour>
      <point x="349" y="-11" type="curve"/>
      <point x="349" y="92" type="line"/>
      <point x="241" y="107"/>
      <point x="162" y="197"/>
      <point x="162" y="308" type="curve"/>
      <point x="156" y="308" type="line"/>
      <point x="156" y="408"/>
      <point x="228" y="498"/>
      <point x="325" y="514" type="curve"/>
      <point x="325" y="611" type="line"/>
      <point x="172" y="596"/>
      <point x="54" y="466"/>
      <point x="54" y="306" type="curve" smooth="yes"/>
      <point x="54" y="137"/>
      <point x="177" y="3"/>
    </contour>
    <contour>
      <point x="270" y="270" type="curve" smooth="yes"/>
      <point x="662" y="270" type="line"/>
      <point x="662" y="314" type="line" smooth="yes"/>
      <point x="662" y="473"/>
      <point x="541" y="596"/>
      <point x="389" y="611" type="curve"/>
      <point x="389" y="514" type="line"/>
      <point x="484" y="499"/>
      <point x="560" y="417"/>
      <point x="560" y="314" type="curve"/>
      <point x="582" y="351" type="line"/>
      <point x="544" y="357"/>
      <point x="507" y="360"/>
      <point x="469" y="360" type="curve" smooth="yes"/>
      <point x="270" y="360" type="line" smooth="yes"/>
      <point x="213" y="360"/>
      <point x="155" y="352"/>
      <point x="98" y="340" type="curve"/>
      <point x="98" y="290" type="line"/>
      <point x="155" y="278"/>
      <point x="213" y="270"/>
    </contour>
    <contour>
      <point x="413" y="-11" type="line"/>
      <point x="483" y="-5"/>
      <point x="547" y="21"/>
      <point x="598" y="62" type="curve"/>
      <point x="568" y="185" type="line"/>
      <point x="533" y="136"/>
      <point x="477" y="100"/>
      <point x="413" y="92" type="curve"/>
    </contour>
  </outline>
</glyph>
<glyph name="v" format="2">
  <advance width="630"/>
  <unicode hex="0076"/>
  <outline>
    <contour>
      <point x="315" y="-30" type="line"/>
      <point x="373" y="92" type="line"/>
      <point x="135" y="600" type="line"/>
      <point x="12" y="600" type="line"/>
    </contour>
    <contour>
      <point x="407" y="162" type="line"/>
      <point x="618" y="600" type="line"/>
      <point x="503" y="600" type="line"/>
      <point x="352" y="279" type="line"/>
    </contour>
  </outline>
</glyph>
<glyph name="y" format="2">
  <advance width="650"/>
  <unicode hex="0079"/>
  <anchor x="443" y="0" name="bottom"/>
  <anchor x="329" y="600" name="top"/>
  <outline>
    <contour>
      <point x="71" y="-300" type="line"/>
      <point x="188" y="-300" type="line"/>
      <point x="638" y="600" type="line"/>
      <point x="523" y="600" type="line"/>
    </contour>
    <contour>
      <point x="233" y="155" type="line"/>
      <point x="293" y="276" type="line"/>
      <point x="283" y="298"/>
      <point x="273" y="318"/>
      <point x="262" y="340" type="curve" smooth="yes"/>
      <point x="134" y="600" type="line"/>
      <point x="12" y="600" type="line"/>
    </contour>
  </outline>
</glyph>
<glyph name="z" format="2">
  <advance width="530"/>
  <unicode hex="007A"/>
  <anchor x="257" y="0" name="bottom"/>
  <anchor x="265" y="300" name="center"/>
  <anchor x="274" y="600" name="top"/>
  <outline>
    <contour>
      <point x="40" y="0" type="line"/>
      <point x="153" y="0" type="line"/>
      <point x="490" y="600" type="line"/>
      <point x="379" y="600" type="line"/>
    </contour>
    <contour>
      <point x="220" y="0" type="line"/>
      <point x="474" y="0" type="line"/>
      <point x="474" y="96" type="line"/>
      <point x="273" y="96" type="line"/>
    </contour>
    <contour>
      <point x="58" y="504" type="line"/>
      <point x="258" y="504" type="line"/>
      <point x="312" y="600" type="line"/>
      <point x="58" y="600" type="line"/>
    </contour>
  </outline>
</glyph>
<glyph name="bar" format="2">
  <advance width="480"/>
  <unicode hex="007C"/>
  <outline>
    <contour>
      <point x="192" y="-180" type="line"/>
      <point x="288" y="-180" type="line"/>
      <point x="288" y="960" type="line"/>
      <point x="192" y="960" type="line"/>
    </contour>
  </outline>
</glyph>
<glyph name="ordfeminine" format="2">
  <advance width="480"/>
  <unicode hex="00AA"/>
  <outline>
    <contour>
      <point x="222" y="412" type="curve" smooth="yes"/>
      <point x="242" y="412"/>
      <point x="262" y="415"/>
      <point x="279" y="422" type="curve"/>
      <point x="279" y="500" type="line"/>
      <point x="266" y="494"/>
      <point x="250" y="490"/>
      <point x="234" y="490" type="curve" smooth="yes"/>
      <point x="174" y="490"/>
      <point x="126" y="539"/>
      <point x="126" y="600" type="curve" smooth="yes"/>
      <point x="126" y="661"/>
      <point x="174" y="710"/>
      <point x="234" y="710" type="curve" smooth="yes"/>
      <point x="250" y="710"/>
      <point x="266" y="706"/>
      <point x="279" y="700" type="curve"/>
      <point x="279" y="778" type="line"/>
      <point x="262" y="785"/>
      <point x="242" y="788"/>
      <point x="222" y="788" type="curve" smooth="yes"/>
      <point x="123" y="788"/>
      <point x="42" y="704"/>
      <point x="42" y="600" type="curve" smooth="yes"/>
      <point x="42" y="496"/>
      <point x="122" y="412"/>
    </contour>
    <contour>
      <point x="336" y="420" type="line"/>
      <point x="420" y="420" type="line"/>
      <point x="420" y="780" type="line"/>
      <point x="336" y="780" type="line"/>
    </contour>
  </outline>
</glyph>
<glyph name="degree" format="2">
  <advance width="480"/>
  <unicode hex="00B0"/>
  <outline>
    <contour>
      <point x="270" y="560" type="line"/>
      <point x="360" y="574"/>
      <point x="426" y="647"/>
      <point x="426" y="735" type="curve" smooth="yes"/>
      <point x="426" y="823"/>
      <point x="360" y="896"/>
      <point x="270" y="910" type="curve"/>
      <point x="270" y="833" type="line"/>
      <point x="317" y="820"/>
      <point x="348" y="781"/>
      <point x="348" y="735" type="curve" smooth="yes"/>
      <point x="348" y="689"/>
      <point x="317" y="650"/>
      <point x="270" y="637" type="curve"/>
    </contour>
    <contour>
      <point x="210" y="560" type="curve"/>
      <point x="210" y="637" type="line"/>
      <point x="163" y="650"/>
      <point x="132" y="689"/>
      <point x="132" y="735" type="curve" smooth="yes"/>
      <point x="132" y="781"/>
      <point x="163" y="820"/>
      <point x="210" y="833" type="curve"/>
      <point x="210" y="910" type="line"/>
      <point x="120" y="896"/>
      <point x="54" y="823"/>
      <point x="54" y="735" type="curve" smooth="yes"/>
      <point x="54" y="647"/>
      <point x="120" y="574"/>
    </contour>
  </outline>
</glyph>
<glyph name="paragraph" format="2">
  <advance width="750"/>
  <unicode hex="00B6"/>
  <outline>
    <contour>
      <point x="372" y="378" type="curve"/>
      <point x="420" y="378" type="line"/>
      <point x="420" y="960" type="line"/>
      <point x="372" y="960" type="line" smooth="yes"/>
      <point x="134" y="960"/>
      <point x="48" y="798"/>
      <point x="48" y="668" type="curve" smooth="yes"/>
      <point x="48" y="549"/>
      <point x="122" y="398"/>
    </contour>
    <contour>
      <point x="324" y="-180" type="line"/>
      <point x="420" y="-180" type="line"/>
      <point x="420" y="324" type="line"/>
      <point x="324" y="324" type="line"/>
    </contour>
    <contour>
      <point x="540" y="-180" type="line"/>
      <point x="636" y="-180" type="line"/>
      <point x="636" y="960" type="line"/>
      <point x="480" y="960" type="line"/>
      <point x="480" y="864" type="line"/>
      <point x="540" y="864" type="line"/>
    </contour>
  </outline>
</glyph>
<glyph name="ordmasculine" format="2">
  <advance width="480"/>
  <unicode hex="00BA"/>
  <outline>
    <contour>
      <point x="268" y="410" type="line"/>
      <point x="366" y="424"/>
      <point x="438" y="504"/>
      <point x="438" y="600" type="curve" smooth="yes"/>
      <point x="438" y="696"/>
      <point x="366" y="776"/>
      <point x="268" y="790" type="curve"/>
      <point x="268" y="707" type="line"/>
      <point x="318" y="694"/>
      <point x="354" y="651"/>
      <point x="354" y="600" type="curve" smooth="yes"/>
      <point x="354" y="549"/>
      <point x="318" y="506"/>
      <point x="268" y="493" type="curve"/>
    </contour>
    <contour>
      <point x="212" y="410" type="curve"/>
      <point x="212" y="493" type="line"/>
      <point x="161" y="506"/>
      <point x="126" y="549"/>
      <point x="126" y="600" type="curve" smooth="yes"/>
      <point x="126" y="651"/>
      <point x="161" y="694"/>
      <point x="212" y="707" type="curve"/>
      <point x="212" y="790" type="line"/>
      <point x="114" y="776"/>
      <point x="42" y="696"/>
      <point x="42" y="600" type="curve" smooth="yes"/>
      <point x="42" y="504"/>
      <point x="114" y="424"/>
    </contour>
  </outline>
</glyph>
<glyph name="Eth" format="2">
  <advance width="960"/>
  <unicode hex="00D0"/>
  <outline>
    <contour>
      <point x="300" y="0" type="line"/>
      <point x="421" y="0" type="line" smooth="yes"/>
      <point x="747" y="0"/>
      <point x="900" y="240"/>
      <point x="900" y="450" type="curve" smooth="yes"/>
      <point x="900" y="660"/>
      <point x="747" y="900"/>
      <point x="421" y="900" type="curve" smooth="yes"/>
      <point x="300" y="900" type="line"/>
      <point x="300" y="798" type="line"/>
      <point x="409" y="798" type="line" smooth="yes"/>
      <point x="685" y="798"/>
      <point x="782" y="600"/>
      <point x="782" y="450" type="curve" smooth="yes"/>
      <point x="782" y="300"/>
      <point x="685" y="102"/>
      <point x="409" y="102" type="curve" smooth="yes"/>
      <point x="300" y="102" type="line"/>
    </contour>
    <contour>
      <point x="126" y="0" type="line"/>
      <point x="240" y="0" type="line"/>
      <point x="240" y="384" type="line"/>
      <point x="126" y="384" type="line"/>
    </contour>
    <contour>
      <point x="30" y="438" type="line"/>
      <point x="510" y="438" type="line"/>
      <point x="510" y="522" type="line"/>
      <point x="240" y="522" type="line"/>
      <point x="240" y="900" type="line"/>
      <point x="126" y="900" type="line"/>
      <point x="126" y="522" type="line"/>
      <point x="30" y="522" type="line"/>
    </contour>
  </outline>
</glyph>
<glyph name="Oslash" format="2">
  <advance width="1060"/>
  <unicode hex="00D8"/>
  <outline>
    <contour>
      <point x="201" y="-25" type="line"/>
      <point x="930" y="852" type="line"/>
      <point x="859" y="911" type="line"/>
      <point x="130" y="34" type="line"/>
    </contour>
    <contour>
      <point x="530" y="-18" type="curve" smooth="yes"/>
      <point x="790" y="-18"/>
      <point x="1000" y="191"/>
      <point x="1000" y="450" type="curve" smooth="yes"/>
      <point x="1000" y="555"/>
      <point x="966" y="651"/>
      <point x="908" y="729" type="curve"/>
      <point x="831" y="638" type="line"/>
      <point x="863" y="583"/>
      <point x="882" y="519"/>
      <point x="882" y="450" type="curve" smooth="yes"/>
      <point x="882" y="251"/>
      <point x="728" y="90"/>
      <point x="530" y="90" type="curve" smooth="yes"/>
      <point x="445" y="90"/>
      <point x="368" y="120"/>
      <point x="308" y="169" type="curve"/>
      <point x="236" y="84" type="line"/>
      <point x="317" y="20"/>
      <point x="419" y="-18"/>
    </contour>
    <contour>
      <point x="158" y="164" type="curve"/>
      <point x="233" y="254" type="line"/>
      <point x="198" y="310"/>
      <point x="178" y="378"/>
      <point x="178" y="450" type="curve" smooth="yes"/>
      <point x="178" y="649"/>
      <point x="332" y="810"/>
      <point x="530" y="810" type="curve" smooth="yes"/>
      <point x="620" y="810"/>
      <point x="701" y="777"/>
      <point x="763" y="722" type="curve"/>
      <point x="834" y="807" type="line"/>
      <point x="752" y="876"/>
      <point x="646" y="918"/>
      <point x="530" y="918" type="curve" smooth="yes"/>
      <point x="270" y="918"/>
      <point x="60" y="709"/>
      <point x="60" y="450" type="curve" smooth="yes"/>
      <point x="60" y="342"/>
      <point x="97" y="243"/>
    </contour>
  </outline>
</glyph>
<glyph name="germandbls" format="2">
  <advance width="690"/>
  <unicode hex="00DF"/>
  <outline>
    <contour>
      <point x="96" y="0" type="line"/>
      <point x="204" y="0" type="line"/>
      <point x="204" y="727" type="line" smooth="yes"/>
      <point x="204" y="801"/>
      <point x="245" y="854"/>
      <point x="303" y="867" type="curve"/>
      <point x="303" y="970" type="line"/>
      <point x="184" y="957"/>
      <point x="96" y="864"/>
      <point x="96" y="727" type="curve" smooth="yes"/>
    </contour>
    <contour>
      <point x="361" y="-12" type="line"/>
      <point x="531" y="2"/>
      <point x="666" y="140"/>
      <point x="666" y="314" type="curve" smooth="yes"/>
      <point x="666" y="418"/>
      <point x="618" y="508"/>
      <point x="542" y="566" type="curve"/>
      <point x="515" y="540"/>
      <point x="486" y="520"/>
      <point x="452" y="502" type="curve"/>
      <point x="519" y="452"/>
      <point x="552" y="390"/>
      <point x="552" y="314" type="curve" smooth="yes"/>
      <point x="552" y="187"/>
      <point x="460" y="94"/>
      <point x="337" y="90" type="curve"/>
    </contour>
    <contour>
      <point x="396" y="537" type="curve"/>
      <point x="527" y="596"/>
      <point x="565" y="683"/>
      <point x="565" y="756" type="curve" smooth="yes"/>
      <point x="565" y="868"/>
      <point x="480" y="957"/>
      <point x="363" y="970" type="curve"/>
      <point x="363" y="866" type="line"/>
      <point x="419" y="853"/>
      <point x="457" y="805"/>
      <point x="457" y="747" type="curve" smooth="yes"/>
      <point x="457" y="679"/>
      <point x="403" y="619"/>
      <point x="309" y="574" type="curve"/>
      <point x="341" y="563"/>
      <point x="370" y="551"/>
    </contour>
  </outline>
</glyph>
<glyph name="ringcomb" format="2">
  <unicode hex="030A"/>
  <anchor x="360" y="600" name="_top"/>
  <outline>
    <contour>
      <point x="387" y="654" type="line"/>
      <point x="454" y="665"/>
      <point x="498" y="715"/>
      <point x="498" y="780" type="curve" smooth="yes"/>
      <point x="498" y="844"/>
      <point x="452" y="894"/>
      <point x="387" y="906" type="curve"/>
      <point x="387" y="837" type="line"/>
      <point x="414" y="827"/>
      <point x="429" y="805"/>
      <point x="429" y="780" type="curve" smooth="yes"/>
      <point x="429" y="755"/>
      <point x="414" y="733"/>
      <point x="387" y="723" type="curve"/>
    </contour>
    <contour>
      <point x="333" y="654" type="curve"/>
      <point x="333" y="723" type="line"/>
      <point x="305" y="733"/>
      <point x="291" y="755"/>
      <point x="291" y="780" type="curve" smooth="yes"/>
      <point x="291" y="805"/>
      <point x="305" y="827"/>
      <point x="333" y="837" type="curve"/>
      <point x="333" y="906" type="line"/>
      <point x="267" y="894"/>
      <point x="222" y="844"/>
      <point x="222" y="780" type="curve" smooth="yes"/>
      <point x="222" y="716"/>
      <point x="267" y="666"/>
    </contour>
  </outline>
</glyph>
<glyph name="strokeshortcomb" format="2">
  <unicode hex="0335"/>
  <anchor x="340" y="300" name="_center"/>
  <outline>
    <contour>
      <point x="80" y="266" type="line"/>
      <point x="460" y="266" type="line"/>
      <point x="460" y="334" type="line"/>
      <point x="80" y="334" type="line"/>
    </contour>
  </outline>
</glyph>
<glyph name="minus" format="2">
  <advance width="750"/>
  <unicode hex="2212"/>
  <outline>
    <contour>
      <point x="90" y="404" type="line"/>
      <point x="660" y="404" type="line"/>
      <point x="660" y="496" type="line"/>
      <point x="90" y="496" type="line"/>
    </contour>
  </outline>
</glyph>
<glyph name="A.ring" format="2">
  <advance width="800"/>
  <anchor x="400" y="900" name="top"/>
  <outline>
    <contour>
      <point x="661" y="0" type="line"/>
      <point x="782" y="0" type="line"/>
      <point x="413" y="900" type="line"/>
      <point x="387" y="900" type="line"/>
      <point x="344" y="796" type="line"/>
    </contour>
    <contour>
      <point x="18" y="0" type="line"/>
      <point x="133" y="0" type="line"/>
      <point x="365" y="580" type="line"/>
      <point x="309" y="721" type="line"/>
    </contour>
    <contour>
      <point x="306" y="267" type="line"/>
      <point x="585" y="267" type="line"/>
      <point x="547" y="362" type="line"/>
      <point x="344" y="362" type="line"/>
    </contour>
  </outline>
</glyph>
<glyph name="H.bar" format="2">
  <advance width="800"/>
  <anchor x="400" y="0" name="bottom"/>
  <anchor x="400" y="720" name="center"/>
  <anchor x="400" y="900" name="top"/>
  <anchor x="126" y="900" name="topleft"/>
  <outline>
    <contour>
      <point x="560" y="0" type="line"/>
      <point x="674" y="0" type="line"/>
      <point x="674" y="900" type="line"/>
      <point x="560" y="900" type="line"/>
      <point x="560" y="546" type="line"/>
      <point x="300" y="546" type="line"/>
      <point x="300" y="444" type="line"/>
      <point x="560" y="444" type="line"/>
    </contour>
    <contour>
      <point x="126" y="0" type="line"/>
      <point x="240" y="0" type="line"/>
      <point x="240" y="900" type="line"/>
      <point x="126" y="900" type="line"/>
    </contour>
  </outline>
</glyph>
<glyph name="circumflexcomb_acutecomb" format="2">
  <anchor x="360" y="600" name="_top"/>
  <outline>
    <contour>
      <point x="171" y="690" type="line"/>
      <point x="281" y="690" type="line"/>
      <point x="309" y="718"/>
      <point x="329" y="746"/>
      <point x="358" y="787" type="curve"/>
      <point x="387" y="746"/>
      <point x="407" y="718"/>
      <point x="435" y="690" type="curve"/>
      <point x="549" y="690" type="line"/>
      <point x="360" y="909" type="line"/>
    </contour>
    <contour>
      <point x="492" y="819" type="line"/>
      <point x="576" y="819" type="line"/>
      <point x="680" y="969" type="line"/>
      <point x="568" y="969" type="line"/>
    </contour>
  </outline>
</glyph>
<glyph name="five.lf" format="2">
  <advance width="690"/>
  <outline>
    <contour>
      <point x="342" y="-11" type="line"/>
      <point x="497" y="4"/>
      <point x="622" y="131"/>
      <point x="622" y="293" type="curve" smooth="yes"/>
      <point x="622" y="482"/>
      <point x="471" y="591"/>
      <point x="300" y="591" type="curve"/>
      <point x="300" y="496" type="line"/>
      <point x="416" y="496"/>
      <point x="514" y="415"/>
      <point x="514" y="293" type="curve" smooth="yes"/>
      <point x="514" y="191"/>
      <point x="439" y="107"/>
      <point x="342" y="92" type="curve"/>
    </contour>
    <contour>
      <point x="278" y="-11" type="curve"/>
      <point x="278" y="92" type="line"/>
      <point x="190" y="105"/>
      <point x="119" y="176"/>
      <point x="106" y="269" type="curve"/>
      <point x="40" y="138" type="line"/>
      <point x="90" y="53"/>
      <point x="178" y="-2"/>
    </contour>
    <contour>
      <point x="142" y="413" type="line"/>
      <point x="166" y="445"/>
      <point x="200" y="471"/>
      <point x="240" y="485" type="curve"/>
      <point x="240" y="900" type="line"/>
      <point x="142" y="900" type="line"/>
    </contour>
    <contour>
      <point x="300" y="798" type="line"/>
      <point x="548" y="798" type="line"/>
      <point x="548" y="900" type="line"/>
      <point x="300" y="900" type="line"/>
    </contour>
  </outline>
</glyph>
<glyph name="fraction.titl" format="2">
  <advance width="120"/>
  <outline>
    <contour>
      <point x="-279" y="0" type="line"/>
      <point x="-219" y="0" type="line"/>
      <point x="399" y="900" type="line"/>
      <point x="339" y="900" type="line"/>
    </contour>
  </outline>
</glyph>
<glyph name="l.ss03" format="2">
  <advance width="330"/>
  <anchor x="150" y="0" name="bottom"/>
  <anchor x="150" y="480" name="center"/>
  <anchor x="360" y="420" name="periodcentered"/>
  <anchor x="150" y="960" name="top"/>
  <anchor x="204" y="960" name="topright"/>
  <outline>
    <contour>
      <point x="269" y="-12" type="curve"/>
      <point x="291" y="81" type="line"/>
      <point x="240" y="81"/>
      <point x="204" y="105"/>
      <point x="204" y="178" type="curve" smooth="yes"/>
      <point x="204" y="960" type="line"/>
      <point x="96" y="960" type="line"/>
      <point x="96" y="176" type="line" smooth="yes"/>
      <point x="96" y="56"/>
      <point x="170" y="-12"/>
    </contour>
  </outline>
</glyph>
<glyph name="minus.titl" format="2">
  <advance width="750"/>
  <outline>
    <contour>
      <point x="90" y="424" type="line"/>
      <point x="660" y="424" type="line"/>
      <point x="660" y="476" type="line"/>
      <point x="90" y="476" type="line"/>
    </contour>
  </outline>
</glyph>
<glyph name="nine.lf" format="2">
  <advance width="750"/>
  <outline>
    <contour>
      <point x="276" y="0" type="line"/>
      <point x="400" y="0" type="line"/>
      <point x="642" y="469" type="line" smooth="yes"/>
      <point x="665" y="513"/>
      <point x="678" y="561"/>
      <point x="678" y="613" type="curve" smooth="yes"/>
      <point x="678" y="772"/>
      <point x="557" y="897"/>
      <point x="404" y="911" type="curve"/>
      <point x="404" y="808" type="line"/>
      <point x="497" y="794"/>
      <point x="570" y="712"/>
      <point x="570" y="612" type="curve" smooth="yes"/>
      <point x="570" y="564"/>
      <point x="557" y="517"/>
      <point x="523" y="455" type="curve" smooth="yes"/>
    </contour>
    <contour>
      <point x="379" y="321" type="curve"/>
      <point x="435" y="424" type="line"/>
      <point x="414" y="417"/>
      <point x="393" y="414"/>
      <point x="372" y="414" type="curve" smooth="yes"/>
      <point x="262" y="414"/>
      <point x="174" y="502"/>
      <point x="174" y="612" type="curve" smooth="yes"/>
      <point x="174" y="712"/>
      <point x="245" y="793"/>
      <point x="340" y="808" type="curve"/>
      <point x="340" y="911" type="line"/>
      <point x="186" y="896"/>
      <point x="66" y="772"/>
      <point x="66" y="613" type="curve" smooth="yes"/>
      <point x="66" y="436"/>
      <point x="203" y="321"/>
    </contour>
  </outline>
</glyph>
<glyph name="one.lf" format="2">
  <advance width="480"/>
  <outline>
    <contour>
      <point x="222" y="0" type="line"/>
      <point x="336" y="0" type="line"/>
      <point x="336" y="748" type="line"/>
      <point x="222" y="691" type="line"/>
    </contour>
    <contour>
      <point x="72" y="680" type="line"/>
      <point x="336" y="814" type="line"/>
      <point x="336" y="920" type="line"/>
      <point x="72" y="788" type="line"/>
    </contour>
  </outline>
</glyph>
<glyph name="ringcomb_acutecomb.case" format="2">
  <anchor x="360" y="900" name="_top"/>
  <outline>
    <contour>
      <point x="203" y="1017" type="curve"/>
      <point x="280" y="1017" type="line"/>
      <point x="292" y="1050"/>
      <point x="323" y="1074"/>
      <point x="360" y="1074" type="curve" smooth="yes"/>
      <point x="396" y="1074"/>
      <point x="428" y="1050"/>
      <point x="439" y="1017" type="curve"/>
      <point x="517" y="1017" type="line"/>
      <point x="504" y="1092"/>
      <point x="438" y="1146"/>
      <point x="360" y="1146" type="curve" smooth="yes"/>
      <point x="281" y="1146"/>
      <point x="216" y="1092"/>
    </contour>
    <contour>
      <point x="360" y="834" type="curve" smooth="yes"/>
      <point x="438" y="834"/>
      <point x="504" y="888"/>
      <point x="517" y="963" type="curve"/>
      <point x="439" y="963" type="line"/>
      <point x="428" y="930"/>
      <point x="396" y="906"/>
      <point x="360" y="906" type="curve" smooth="yes"/>
      <point x="323" y="906"/>
      <point x="292" y="930"/>
      <point x="281" y="963" type="curve"/>
      <point x="203" y="963" type="line"/>
      <point x="216" y="888"/>
      <point x="281" y="834"/>
    </contour>
    <contour>
      <point x="324" y="1206" type="line"/>
      <point x="408" y="1206" type="line"/>
      <point x="485" y="1317" type="line"/>
      <point x="380" y="1317" type="line"/>
    </contour>
  </outline>
</glyph>
<glyph name="seven.lf" format="2">
  <advance width="690"/>
  <outline>
    <contour>
      <point x="83" y="0" type="line"/>
      <point x="205" y="0" type="line"/>
      <point x="650" y="900" type="line"/>
      <point x="532" y="900" type="line"/>
    </contour>
    <contour>
      <point x="51" y="798" type="line"/>
      <point x="408" y="798" type="line"/>
      <point x="460" y="900" type="line"/>
      <point x="51" y="900" type="line"/>
    </contour>
  </outline>
</glyph>
<glyph name="three.lf" format="2">
  <advance width="690"/>
  <outline>
    <contour>
      <point x="342" y="-11" type="line"/>
      <point x="500" y="4"/>
      <point x="624" y="132"/>
      <point x="624" y="294" type="curve" smooth="yes"/>
      <point x="624" y="443"/>
      <point x="517" y="558"/>
      <point x="383" y="585" type="curve"/>
      <point x="552" y="900" type="line"/>
      <point x="436" y="900" type="line"/>
      <point x="215" y="473" type="line"/>
      <point x="242" y="488"/>
      <point x="275" y="498"/>
      <point x="312" y="498" type="curve" smooth="yes"/>
      <point x="425" y="498"/>
      <point x="516" y="406"/>
      <point x="516" y="294" type="curve" smooth="yes"/>
      <point x="516" y="191"/>
      <point x="441" y="106"/>
      <point x="342" y="92" type="curve"/>
    </contour>
    <contour>
      <point x="282" y="-11" type="curve"/>
      <point x="282" y="92" type="line"/>
      <point x="192" y="105"/>
      <point x="121" y="176"/>
      <point x="108" y="269" type="curve"/>
      <point x="42" y="138" type="line"/>
      <point x="92" y="53"/>
      <point x="180" y="-2"/>
    </contour>
    <contour>
      <point x="108" y="804" type="line"/>
      <point x="320" y="804" type="line"/>
      <point x="370" y="900" type="line"/>
      <point x="108" y="900" type="line"/>
    </contour>
  </outline>
</glyph>
<glyph name="tildecomb_macroncomb" format="2">
  <anchor x="360" y="600" name="_top"/>
  <outline>
    <contour>
      <point x="194" y="698" type="line"/>
      <point x="212" y="741"/>
      <point x="240" y="766"/>
      <point x="281" y="766" type="curve" smooth="yes"/>
      <point x="332" y="766"/>
      <point x="385" y="718"/>
      <point x="445" y="718" type="curve" smooth="yes"/>
      <point x="493" y="718"/>
      <point x="531" y="743"/>
      <point x="555" y="791" type="curve"/>
      <point x="526" y="873" type="line"/>
      <point x="508" y="830"/>
      <point x="480" y="804"/>
      <point x="440" y="804" type="curve" smooth="yes"/>
      <point x="388" y="804"/>
      <point x="336" y="853"/>
      <point x="275" y="853" type="curve" smooth="yes"/>
      <point x="228" y="853"/>
      <point x="190" y="828"/>
      <point x="165" y="780" type="curve"/>
    </contour>
    <contour>
      <point x="189" y="921" type="line"/>
      <point x="531" y="921" type="line"/>
      <point x="531" y="999" type="line"/>
      <point x="189" y="999" type="line"/>
    </contour>
  </outline>
</glyph>
<glyph name="zero.numr" format="2">
  <advance width="480"/>
  <outline>
    <contour>
      <point x="268" y="410" type="line"/>
      <point x="379" y="428"/>
      <point x="432" y="546"/>
      <point x="432" y="660" type="curve" smooth="yes"/>
      <point x="432" y="774"/>
      <point x="380" y="892"/>
      <point x="268" y="910" type="curve"/>
      <point x="268" y="826" type="line"/>
      <point x="322" y="805"/>
      <point x="342" y="729"/>
      <point x="342" y="660" type="curve" smooth="yes"/>
      <point x="342" y="591"/>
      <point x="321" y="515"/>
      <point x="268" y="494" type="curve"/>
    </contour>
    <contour>
      <point x="212" y="410" type="curve"/>
      <point x="212" y="494" type="line"/>
      <point x="159" y="515"/>
      <point x="138" y="591"/>
      <point x="138" y="660" type="curve" smooth="yes"/>
      <point x="138" y="729"/>
      <point x="159" y="805"/>
      <point x="212" y="826" type="curve"/>
      <point x="212" y="910" type="line"/>
      <point x="101" y="891"/>
      <point x="48" y="774"/>
      <point x="48" y="660" type="curve" smooth="yes"/>
      <point x="48" y="546"/>
      <point x="101" y="429"/>
    </contour>
  </outline>
</glyph>
<glyph name="zero.osf" format="2">
  <advance width="900"/>
  <outline>
    <contour>
      <point x="450" y="-12" type="curve" smooth="yes"/>
      <point x="659" y="-12"/>
      <point x="828" y="151"/>
      <point x="828" y="360" type="curve" smooth="yes"/>
      <point x="828" y="569"/>
      <point x="659" y="732"/>
      <point x="450" y="732" type="curve" smooth="yes"/>
      <point x="241" y="732"/>
      <point x="72" y="569"/>
      <point x="72" y="360" type="curve" smooth="yes"/>
      <point x="72" y="151"/>
      <point x="241" y="-12"/>
    </contour>
    <contour>
      <point x="450" y="94" type="curve" smooth="yes"/>
      <point x="302" y="94"/>
      <point x="184" y="212"/>
      <point x="184" y="360" type="curve" smooth="yes"/>
      <point x="184" y="508"/>
      <point x="302" y="626"/>
      <point x="450" y="626" type="curve" smooth="yes"/>
      <point x="598" y="626"/>
      <point x="716" y="508"/>
      <point x="716" y="360" type="curve" smooth="yes"/>
      <point x="716" y="212"/>
      <point x="598" y="94"/>
    </contour>
  </outline>
</glyph>
